<svg id="Layer_2" data-name="Layer 2" xmlns="http://www.w3.org/2000/svg" viewBox="0 0 100 100">
    <defs>
        <style>
        .cls-1 {
            fill: #fff
        }

        .cls-2 {
            fill: #545554
        }
        </style>
    </defs>
    <title>Artboard 28</title>
    <path class="cls-1" d="M12.77 64.78c-1.53-2.24.31-6.21 6.31-9.56s.2-33.77 25.13-42.62c22.84-8.12 32.84 14.24 32.84 14.24l9.05 28.58s12.21 10.88 1.53 10.17L77 66.1s5.59 16.17-.1 16.28-10.07.41-10.07.41l-.35-17.09-6.31-.31-3.36 2.44-10.88.17-4.28-3-6.82 1.73.61 15.36s-11.09 3.56-12-.61-1.82-13.34 1.63-15.38-10.07 1.96-12.3-1.32z" />
    <path class="cls-2" d="M40.18 58.57c0 2.62-.33 6 1.42 8.18 2 2.52 6.45 2.34 9.36 2.49 2.57.13 6.28.31 8.34-1.56 2.32-2.11 1.52-5.86 1.78-8.62.15-1.6-2.35-1.59-2.5 0-.19 2 .6 5.54-1.16 6.93-1.53 1.2-4.64.84-6.45.75-2.18-.11-6.17.19-7.57-1.79-1.15-1.61-.72-4.51-.71-6.38a1.25 1.25 0 0 0-2.5 0z" />
    <path class="cls-2" d="M60 59.77c5.87-1.15 10.59-7.48 10.76-13.37.18-6.53-5.16-11.94-10.94-14.05-10.12-3.7-23.73-.67-28.06 10.1-3 7.39 2.14 14 8.77 17 1.45.66 2.73-1.49 1.26-2.16-3.35-1.52-6.63-4-8-7.54-1.18-3.1-.1-6.36 1.64-9 3.14-4.78 8.87-7.1 14.42-7.36 6.08-.29 12.82 1.55 16.38 6.82a10.12 10.12 0 0 1 1 10.23c-1.5 3.32-4.21 6.22-7.88 6.94-1.58.31-.91 2.72.66 2.41z" />
    <path class="cls-2" d="M60.62 43.8c.09.08.07.22.12.3q0-.22 0 0v-.13s.14-.37.05-.18c0-.1.11-.19.16-.28q-.09.13.08-.07l-.24.14a.76.76 0 0 1-.87-.31l.05.1q-.08-.18 0 0v-.08.35c0-.11 0 0 0 0v.06a.5.5 0 0 1 .38-.11q.8.63.58.27 0-.1-.05-.2v-.32c-.07.13.1-.08.14-.11l.39-.37c1.16-1.12-.61-2.88-1.77-1.77a3.23 3.23 0 0 0-1.27 2.2 3.35 3.35 0 0 0 .53 2 1.77 1.77 0 0 0 2.47.48 2.73 2.73 0 0 0 1.16-2 2.82 2.82 0 0 0-.64-2.12 1.72 1.72 0 0 0-2.32-.18c-1.14.84-1.88 3-.67 4.12a1.28 1.28 0 0 0 1.77 0 1.26 1.26 0 0 0 0-1.77zM41 44.56c.09.08.07.22.12.3q0-.22 0 0v-.13s.14-.37.05-.18c0-.1.11-.19.16-.28q-.09.13.08-.07l-.24.14a.76.76 0 0 1-.87-.31l.05.1q-.08-.18 0 0v-.08.35c0-.11 0 0 0 0v.06a.5.5 0 0 1 .38-.11q.8.63.58.27 0-.1-.05-.2v-.32c-.07.13.1-.08.14-.11l.39-.37c1.16-1.12-.61-2.88-1.77-1.77a3.23 3.23 0 0 0-1.27 2.2 3.35 3.35 0 0 0 .53 2 1.77 1.77 0 0 0 2.47.48 2.73 2.73 0 0 0 1.16-2 2.82 2.82 0 0 0-.64-2.12 1.72 1.72 0 0 0-2.32-.18c-1.14.84-1.88 3-.67 4.12a1.28 1.28 0 0 0 1.77 0 1.26 1.26 0 0 0 0-1.77zm6.21 8.87c2 1.62 4.88 1.27 7.14.51 1.52-.51.87-2.92-.66-2.41-1.24.42-3.52 1.1-4.7.13s-3 .75-1.77 1.77zm-16.28 4.74c-4.06 1-7.07 7-8.42 10.52-1.72 4.48-2.12 9.89.09 14.27.72 1.44 2.88.17 2.16-1.26-1.74-3.45-1.38-8-.12-11.57a23.19 23.19 0 0 1 2.66-5.17c1-1.55 2.36-3.9 4.3-4.37 1.56-.38.9-2.79-.66-2.41z" />
    <path class="cls-2" d="M23.53 84.1a28.76 28.76 0 0 0 5.88.23c1.63 0 3.94.4 5.51-.23 2.31-.92 1.77-4.92 1.57-6.84-.22-2.12-.54-4.24-.66-6.37a16.25 16.25 0 0 1 .17-4.45c.24-.95 1-1.53 1.3-2.42.84-2.61-2.76-4.41-4.39-5.72-1.24-1-3 .76-1.77 1.77a23.84 23.84 0 0 1 2.57 2c1.19 1.24.94 1 .31 2.37-1.26 2.65-.69 6.36-.42 9.16.11 1.17.25 2.36.39 3.53.1.84.59 4 0 4.64s-3.78.06-4.52.06a26.06 26.06 0 0 1-5.22-.15c-1.57-.33-2.24 2.08-.66 2.41zM69.9 60.58c1.93.46 3.26 2.82 4.3 4.37a23.13 23.13 0 0 1 2.66 5.17c1.27 3.56 1.62 8.12-.12 11.57-.72 1.43 1.43 2.7 2.16 1.26 2.21-4.39 1.81-9.79.09-14.27-1.35-3.53-4.36-9.54-8.42-10.52-1.56-.38-2.23 2-.66 2.41z" />
    <path class="cls-2" d="M77.3 81.68a23.49 23.49 0 0 1-4.72.15c-.92 0-4.32.54-5-.06s-.17-3.36-.11-4.1c.12-1.36.33-2.71.46-4.07.27-2.77.85-6.55-.42-9.16-.59-1.22-.9-1 .05-2.09a19 19 0 0 1 2.82-2.28c1.26-1-.52-2.76-1.77-1.77-1.66 1.33-5.2 3.09-4.39 5.72.27.89 1.06 1.47 1.3 2.42a16.44 16.44 0 0 1 .15 4.45c-.11 2.13-.44 4.25-.66 6.37-.2 1.93-.73 5.92 1.57 6.84 1.61.64 3.84.23 5.51.23A28.76 28.76 0 0 0 78 84.1c1.57-.33.91-2.74-.66-2.41zm-42.15-14.8h5.92a1.25 1.25 0 0 0 0-2.5h-5.92a1.25 1.25 0 0 0 0 2.5z" />
    <path class="cls-2" d="M59.75 66.5H66a1.25 1.25 0 0 0 0-2.5h-6.25a1.25 1.25 0 0 0 0 2.5zM24.1 64.12c-3.2.23-6.4.26-9.61.44-1.6.09-1.61 2.59 0 2.5 3.2-.18 6.41-.21 9.61-.44 1.6-.11 1.61-2.62 0-2.5zm66.35.38c-4.49.06-9 .2-13.47.31a1.25 1.25 0 0 0 0 2.5c4.49-.11 9-.25 13.47-.31a1.25 1.25 0 0 0 0-2.5z" />
    <path class="cls-2" d="M21.23 65.76C25 61.78 30 57 35.89 57a1.25 1.25 0 0 0 0-2.5c-6.59 0-12.14 5-16.42 9.47-1.11 1.16.65 2.93 1.77 1.77zm45.55-9.69c3.91 0 7.78.57 11 3a11.13 11.13 0 0 1 2.79 3.22c.72 1.27.69 2.69 1.65 3.8s2.82-.56 1.77-1.77c-.38-.43-.35-1.29-.54-1.83A10.44 10.44 0 0 0 82 59.86a15.27 15.27 0 0 0-3.25-3.19c-3.55-2.46-7.75-3.09-11.97-3.1a1.25 1.25 0 0 0 0 2.5z" />
    <path class="cls-2" d="M22.38 65.17a4.28 4.28 0 0 0 2.44-.32 1.26 1.26 0 0 0-.3-2.28 4.82 4.82 0 0 0-1.17-.08l.33 2.46 1.16-.19c1.25-.19 1.13-2.13 0-2.41l-.49-.12.87.87-.07-.35-.31 1.25c.33-.32 1.12-.3 1.54-.57.75-.49 1.07-1.39 1.79-1.91l-1.71-1.71-.77.49 1.58 1.21c.06.63.06.12.64-.17.36-.18.69-.45 1-.66a15.85 15.85 0 0 1 1.65-.91l-1.84-1.41a1.21 1.21 0 0 1-.63.48L29.35 61a19.61 19.61 0 0 1 4.4-2.23L32.2 57.5c0-.37-.6.06-.85.1l1.22 2.09a4.15 4.15 0 0 1 2.94-1.53L34.62 56l-1.37.66.88 2.13q.87-.17.48-.48l-.32-1.22-.27.23 2 1.51c-.14.29.38-.11.67-.1l-1.21-1.58a1.2 1.2 0 0 1-1.21.87l1.41 1.84c.29-.4 1.91-.63 2.1-.61L36.49 58c0 .17-1.78.47-1.67.46l1.25 1.25q-.39.88.47.21.81 0 .23-.38v-1.22c-.16.34-.81.59-1.15.72l1.22 2.09 1.8-.69-1.24-1.25a17.49 17.49 0 0 0-1.92.92l1.51 2c.18-.14 1.43-1.21 1.61-1.09l-.6-1.45c-.11.32-.84 1.13-1.2 1.17l1.08 1.88c.23-.46.87-1.24 1.46-1.21l-1.25-1.25c.08 1-1.07 1.68-1.74 2.1l1.84 1.41c.13-.49 1-.73 1.12-1.11.39-1.4-1.33-.28-1.89-.14l1.22 2.09a6.05 6.05 0 0 1 1.65-1.44l-1.54-.87.11 1.11h2.44l-.24-1c-.38-1.57-2.75-.9-2.41.66a2.31 2.31 0 0 1 .05 1.24l1.88-1.08a2.85 2.85 0 0 0-2.58-.36c-.94.31-1.33 1.79-.3 2.28a2.3 2.3 0 0 0 3.3-1.16 4.24 4.24 0 0 0 .47-1.94 4.72 4.72 0 0 0-.21-1.13l-.08-.46q-.12-.87-.21.07l-1.51-.2.19.22c1.08 1.2 2.84-.57 1.77-1.77l-.19-.22a1.27 1.27 0 0 0-1.51-.2A1.87 1.87 0 0 0 38.54 60c0 .27.41 2.87.41 2.87l-.3 2.28.66.11a1.27 1.27 0 0 0 1.88-1.08 5.52 5.52 0 0 0-.14-1.91l-2.4.73.24 1c.28 1.13 2.23 1.26 2.41 0a5.65 5.65 0 0 0-.11-2.44 1.26 1.26 0 0 0-1.54-.87 7.83 7.83 0 0 0-2.76 2.09 1.26 1.26 0 0 0 1.22 2.09c1.6-.38 4.37-3.17 2.3-4.64C38.79 59 36.2 61.5 35.8 63a1.26 1.26 0 0 0 1.84 1.41c1.48-.95 3.13-2.34 3-4.26a1.28 1.28 0 0 0-1.25-1.25 4.33 4.33 0 0 0-3.61 2.45c-.38.75.06 2 1.08 1.88a4.54 4.54 0 0 0 3.61-3 1.27 1.27 0 0 0-.57-1.41c-1.64-1-3.37.5-4.64 1.49s.32 2.58 1.51 2 3.23-1.5 3.13-3.12a1.27 1.27 0 0 0-1.25-1.25 5.36 5.36 0 0 0-3.57 1.42c-1 .76.08 2.55 1.22 2.09 1.36-.55 4.35-2.46 2-3.9-1.49-.89-4.55.42-4.67 2.19A1.26 1.26 0 0 0 34.82 61c1.88-.14 3.92-.88 4.17-3 .09-.73-.65-1.17-1.25-1.25a4.93 4.93 0 0 0-4.26 1.85c-.7 1 .46 2 1.41 1.84a3.73 3.73 0 0 0 3-2.62 1.26 1.26 0 0 0-1.21-1.58 3.3 3.3 0 0 0-2.83 1.34 1.26 1.26 0 0 0 2 1.51 2.82 2.82 0 0 0 .92-1.33 1.22 1.22 0 0 0-.32-1.22 2.76 2.76 0 0 0-4 .48c-.61.76-.31 2.21.88 2.13a4.31 4.31 0 0 0 3.14-1.39 1.26 1.26 0 0 0-.88-2.13 6.55 6.55 0 0 0-4.71 2.26A1.26 1.26 0 0 0 32 60a3 3 0 0 0 2.7-2.5 1.26 1.26 0 0 0-1.58-1.21 22 22 0 0 0-5 2.49 1.25 1.25 0 0 0 1.26 2.16 3.51 3.51 0 0 0 1.78-2c.47-1.13-1-1.8-1.84-1.41-1.28.58-4.73 2.13-4.56 3.9a1.28 1.28 0 0 0 1.58 1.21A3.39 3.39 0 0 0 28.62 61c.69-1-.7-2.44-1.71-1.71a8 8 0 0 0-1.27 1.19c-.79.86-.77.57-1.71 1.07a1.75 1.75 0 0 0-1.1 2.18 1.23 1.23 0 0 0 .87.87l.49.12v-2.37l-1.19.18c-1.38.24-1.07 2.55.33 2.46h.5l-.3-2.28c-.27.14-.9 0-1.18 0-1.61-.1-1.6 2.4 0 2.5z" />
    <path class="cls-2" d="M36.81 65.55c.65 0 1.3.07 2 .05a4.76 4.76 0 0 0 1-.09 2.13 2.13 0 0 0 .35-.13q.47-.16-.37-.09c0 .16 1.15.45 1.25.46a1.56 1.56 0 0 0 1.25-.54 1.25 1.25 0 0 0 .25-1.21l-.08-.21c-.57-1.49-3-.84-2.41.66l.08.21.32-1.22c.22-.26 1.15.16.6-.26a1.64 1.64 0 0 0-.38-.18 1.69 1.69 0 0 0-1.16-.08 8.7 8.7 0 0 1-2.7.14 1.25 1.25 0 0 0 0 2.5zm24.79-.38a21.33 21.33 0 0 0 4-.4 1.26 1.26 0 0 0-.33-2.46 12.08 12.08 0 0 1-3.43.17v2.42a5 5 0 0 1 2.08-.3v-2.5a12.37 12.37 0 0 1-2.2 0l.28 2.43c.68-.29 1.35-.48 2.05-.71 1.06-.34 1.31-2.22 0-2.41-.91-.13-2 .43-2.87.14l.3 2.28a13.87 13.87 0 0 1 2.52-1.2l-1.26-2.16a2.87 2.87 0 0 1-1.07.37q-.83 0 .17 1.21L60 61.31l.06.38.32-1.22-.28.26 2 .25c-.81-1.38-.05-.64.53-1s1.33-.55 1.93-.87c1.13-.6 2.07-1.49 3.16-2.13L66 55.27c-.87 1.8-2.79 2.76-4 4.29a1.26 1.26 0 0 0 1.51 2c1.69-.94 3-3.12 4.84-3.76L67 55.93c-.66 1-2 3.34-3.28 3.71l1.54 1.54s2.44-2.7 2.73-2.63l-.75-1.84c-.44.84-1.33 2.32-2.37 2.6l1.41 1.84c.27-.58 2.5-3.08 3.29-3.12l-1.21-1.58-.09.37.87-.87-.34.13 1.41.57-.4.6-.87-1.54q.07-.38-.38-.07c-1.59.41-.89 2.66.66 2.41 1.15-.18 3.32 1.71 4.43 2.48a14.31 14.31 0 0 1 3.57 3.82v-1.28l-.18.38 2-.25c-1.58-1.28-2-3.4-3.67-4.48a18.92 18.92 0 0 0-4.65-2.49l.75 1.84c-.27.54.18.09.61.29.7.33.63-.4 1.41.71l1.71-1.71c-.54-.24-.82-.9-1.11-1.37l-1.71 1.71c1.69 1.17 3.81 1.58 5.55 2.65a6.08 6.08 0 0 1 2.21 2.82c.1.19.35.91.56 1q.21.51.4-.22.59-.62-.07-.34c-.72-.39-2.76 0-3.67-.12s-1-.15-1.46-.85c-.64-1-.9-2.37-1.49-3.44l-1.71 1.71c1.87 1.19 3.22 3.18 5.18 4.18a1.27 1.27 0 0 0 1.84-1.41 32.6 32.6 0 0 1-.72-4.1l-1.25 1.25c.26 0 2.05 3.86 2.07 3.9l2.09-1.22a34.53 34.53 0 0 1-2.71-3.55l-2 1.51c.28.28.58.55.86.83.54.54.59 1.13 1 .39l1.71-.45-.22-.15c-1.34-.9-2.59 1.27-1.26 2.16l.22.15a1.26 1.26 0 0 0 1.71-.45c1-1.65-1.3-3.25-2.28-4.25s-2.85.36-2 1.51a39.15 39.15 0 0 0 3.11 4.05A1.26 1.26 0 0 0 82.16 64c-.58-1.78-2.28-5.56-4.48-5.74a1.25 1.25 0 0 0-1.25 1.25 37.89 37.89 0 0 0 .8 4.76l1.84-1.41c-1.91-1-3.32-3-5.18-4.18-1.09-.69-2.29.66-1.71 1.71.75 1.37 1.1 3.7 2.33 4.76a4.64 4.64 0 0 0 2.57.75c1.58.19 4.11.66 5.5-.32 1.8-1.27-.34-4-1-5.29-1.49-2.83-5.55-3.12-8-4.81-1-.73-2.34.69-1.71 1.71a5 5 0 0 0 2 2.27c1 .45 2.51-.57 1.71-1.71-1.09-1.54-5.13-3.39-6.34-1a1.27 1.27 0 0 0 .76 1.89 15.12 15.12 0 0 1 4 2.23c.18.15 1 1.95 1.4 2.39A11.16 11.16 0 0 0 77.21 65a1.27 1.27 0 0 0 2-.25l.18-.38a1.26 1.26 0 0 0 0-1.26 17.84 17.84 0 0 0-4.47-4.72c-1.82-1.29-4-3.11-6.36-2.73l.63 2.34a2.54 2.54 0 0 0 2.13-1.67 1.26 1.26 0 0 0-.87-1.54c-1.7-.39-3.62 1.44-2.43 3.07a1.28 1.28 0 0 0 1.41.57 1.71 1.71 0 0 0 1.31-1.37 1.26 1.26 0 0 0-1.21-1.58c-1.93.11-4.69 2.69-5.45 4.36a1.27 1.27 0 0 0 1.41 1.84c1.72-.48 3.06-2.22 3.86-3.75a1.26 1.26 0 0 0-.75-1.84c-1.32-.31-2.07.53-3 1.28-1.13.88-2.5 1.57-2.76 3.1a1.27 1.27 0 0 0 1.5 1.53c2.09-.61 3.64-3.12 4.78-4.85a1.26 1.26 0 0 0-1.41-1.84c-2.11.75-3.51 2.95-5.44 4l1.51 2c1.36-1.71 3.43-2.78 4.4-4.8a1.26 1.26 0 0 0-1.71-1.71c-1 .57-1.79 1.35-2.77 1.91s-2.42.75-3.38 1.45C59 59.13 59.23 61 60 62.25a1.27 1.27 0 0 0 2 .25 1.7 1.7 0 0 0 .54-1.86 1.26 1.26 0 0 0-1.84-.75c-1 .65-1.66 2-.65 3s3 .31 4.07-.29c1.45-.8.17-2.77-1.26-2.16a13.4 13.4 0 0 0-2.56 1.21 1.27 1.27 0 0 0 .3 2.28c1.1.38 1.85-.29 2.87-.14v-2.37c-.7.22-1.38.42-2.05.71a1.26 1.26 0 0 0 .33 2.46 12.37 12.37 0 0 0 2.2 0 1.25 1.25 0 0 0 0-2.5 10.14 10.14 0 0 0-2.74.39 1.26 1.26 0 0 0 0 2.41 13.38 13.38 0 0 0 4.1-.08l-.33-2.46a17.24 17.24 0 0 1-3.3.31 1.25 1.25 0 0 0 0 2.5z" />
    <path class="cls-2" d="M77 60.43h.14L76.75 58c-.53.19-1 .41-1.57.6a1.26 1.26 0 0 0-.9 1.37A1.23 1.23 0 0 0 75.51 61a3.58 3.58 0 0 0 .6-.1l.28-.12h.11c-.12.19-1-.87-.8-.41a2.08 2.08 0 0 0 .33.44 1.26 1.26 0 0 0 2.09-.55 2.6 2.6 0 0 0 0-1.19 1.26 1.26 0 0 0-1.54-.87 1.28 1.28 0 0 0-.87 1.54v-.14l2.09-.6c.05.06.07.08 0 0a1.67 1.67 0 0 0-.25-.33 1.51 1.51 0 0 0-.71-.39 2 2 0 0 0-.9 0 1.59 1.59 0 0 0-.4.15c-.07 0-.23.09 0 .06l.31 2.51c.53-.19 1-.41 1.57-.6a1.26 1.26 0 0 0 .9-1.37 1.23 1.23 0 0 0-1.23-1.08H77a1.29 1.29 0 0 0-1.25 1.25A1.26 1.26 0 0 0 77 60.43z" />
    <path class="cls-2" d="M13.81 64.36c-.26.1-.06-2.09.07-2.47a6.27 6.27 0 0 1 2.35-3.3c1.61-1.08 2.85-1.21 4.12-2.85s1.38-3.52 1.66-5.37c.38-2.46 1-4.84 1.47-7.28 1.91-9.67 5.72-19.29 13.89-25.31a27.88 27.88 0 0 1 13.24-5.08 31.28 31.28 0 0 1 13.67 2.18c4.59 1.72 7.78 5.69 10.25 9.78a56.58 56.58 0 0 1 5.7 13.65c1.4 5 2.23 10.24 3.72 15.26a10.27 10.27 0 0 0 2.79 5c2.29 2 4.57 2.9 3 6.34l2.28 1q.19-.62.41-1.24c.52-1.53-1.9-2.18-2.41-.66q-.21.62-.41 1.24c-.43 1.33 1.68 2.26 2.28 1 .81-1.74 1.49-3.12.87-5.11-.72-2.27-3-3.12-4.54-4.63-1.87-1.84-2.2-5-2.8-7.47-.78-3.19-1.46-6.41-2.28-9.59a64 64 0 0 0-6.19-15.6c-2.39-4.15-5.84-8.64-10.31-10.66a30.8 30.8 0 0 0-30 2.11c-9.54 6.35-13.42 17.33-15.7 28-.37 1.73-.81 3.41-1.1 5.15a22.27 22.27 0 0 1-.92 4.74c-1.06 2.62-4.08 2.86-5.8 5-1.27 1.57-2.34 4-2 6.09.28 1.51 1.7 3.16 3.35 2.53 1.49-.56.84-3-.66-2.41z" />
    <path class="cls-2" d="M21.42 53c.27 0 .68.48.91.62a4.66 4.66 0 0 0 1.23.54 2.51 2.51 0 0 0 2.52-.67 13.69 13.69 0 0 0 2.6-4.49c.8-2-.27-3.9-2-5-1.41-.87-4.2-.22-5.32.93s.64 2.92 1.77 1.77a2.07 2.07 0 0 1 3.13.36c.44.84.08 1.11-.24 1.81-.07.16-.47 1.14-.27.8-.23.39-.62.77-.87 1.16s-.27.86-.89.77c-.43-.06-.86-.6-1.23-.81a2.9 2.9 0 0 0-1.28-.34c-1.6-.12-1.6 2.38 0 2.5zm2.99-15.67c.4.46.92.68 1.36 1.11S26.52 39.57 27 40a2.83 2.83 0 0 0 3.11.68 10.48 10.48 0 0 0 5.73-5.58c.74-2.16 1.74-4.55-.51-5.91a10.21 10.21 0 0 0-2.85-1.4c-1.68-.35-3.25.34-4.89.54s-1.6 2.7 0 2.5c.84-.1 1.65-.31 2.48-.43a4.43 4.43 0 0 1 3.43.69c.23.14.43.44.72.47.81.06-.21-.51 0-.61-.3.12-.54 2.4-.63 2.68a7.58 7.58 0 0 1-3.89 4.46c-1.14.44-1.31-.36-1.92-1.08s-1.19-.91-1.68-1.47c-1.06-1.21-2.83.56-1.77 1.77zm11.88-19.96c0 2.34-.06 4.68-.06 7a3.28 3.28 0 0 0 1.46 3.16c1.1.73 2.87 1.92 4.24 1.87 1.59-.07 3.43-1.75 4.68-2.61 2.62-1.79 4.14-4.56 2.8-7.79a5.72 5.72 0 0 0-1.11-1.61 25.34 25.34 0 0 0-1.62-2.06c-1.26-1.18-3.59-1.74-5.24-2.07s-2.24 2.09-.66 2.41a9 9 0 0 1 5.76 3.48 3.3 3.3 0 0 1 .61 3.1c-.37 1.59-1.57 2.2-2.86 3-.94.59-1.88 1.67-3 1.37A5.64 5.64 0 0 1 38.84 25c-.36-.73-.05-2.11 0-2.89v-4.77a1.25 1.25 0 0 0-2.5 0zm18.77-5.23c-1.66 2.58-3.35 4.86-1.19 7.59 1 1.25 2 2.45 3 3.72.81 1.08 1.86 2.59 3.15 3.12 1.83.76 5.78-.44 7-1.88 2.52-2.88 1.72-7 .52-10.19-.56-1.49-3-.85-2.41.66.83 2.21 1.78 5 .36 7.2a3.58 3.58 0 0 1-2 1.35c-1.25.49-2.15.84-3.22-.13a36.29 36.29 0 0 1-3.6-4.34c-.8-1-1.59-1.85-1.1-3.2a15.5 15.5 0 0 1 1.63-2.64c.87-1.36-1.29-2.61-2.16-1.26zm20.63 13.41c-2.44-.57-5.79-2-6.93 1.17a25.81 25.81 0 0 0-1.25 4.69c-.18 1.38.46 1.84 1.26 2.82 1.41 1.73 2.08 4.71 4.89 3.31s3.73-3.66 5.42-6c.92-1.34-1.23-2.54-2.16-1.29s-1.69 3-3 4.18c-.33.29-1.22.89-1.68.71s-.83-1.48-1.08-1.86-1.15-1.1-1.23-1.44.51-1.44.61-1.79c.23-.87.18-2.49 1.24-2.83.76-.25 2.45.57 3.24.75 1.57.37 2.23-2 .66-2.41zm6.51 14.78c-2.56-.36-4.66-3.35-6.85-.74a22.4 22.4 0 0 0-2.71 3.84c-.76 1.48.3 2.48.93 3.86 1 2.27 1.53 5.76 4.93 4.19a14.12 14.12 0 0 0 2.25-1.75 7.27 7.27 0 0 0 2.5-2.65c.62-1.46-1.53-2.74-2.16-1.26-.49 1.16-1.86 1.77-2.75 2.56-.33.29-.74 1.12-1.32.93-.15 0-.34-.88-.4-1a17.84 17.84 0 0 0-1.13-2.74c-.62-1.06-.71-.78 0-1.82A14.55 14.55 0 0 1 77 41.62c1-1.06.05-.41.82-.4a8.86 8.86 0 0 1 1.13.5 12.37 12.37 0 0 0 2.62 1c1.57.22 2.25-2.19.66-2.41zM34.88 82.06c-1.61-2.51-4.11-2.36-6.1-.84a3 3 0 0 0-5 .88c-.65 1.27 1.23 2.4 1.88 1.13h1.88a1.09 1.09 0 0 0 1.82.49c1-1.11 2.54-2.19 3.63-.48.77 1.15 2.66.03 1.89-1.18zm43.69.29a3 3 0 0 0-2.78-2.4 4.35 4.35 0 0 0-3.19 1.29c-1.53-1.74-3.7-1.24-5.44.76-.93 1.07.6 2.65 1.54 1.58s2-1.65 2.77-.11a1.08 1.08 0 0 0 1.71.23c.52-.53 2.88-2.81 3.29-.78.29 1.43 2.39.83 2.1-.57z" />
</svg>